# Blender v2.78 (sub 0) OBJ File: ''
# www.blender.org
mtllib perfect_wall.mtl
o Plane.001
v -1.000000 1.000000 0.000000
v -1.000000 -1.000000 -0.000000
v 1.000000 -1.000000 -0.000000
v 1.000000 -1.000000 -0.131558
v -1.000000 -1.000000 -0.131558
v -1.000000 1.000000 -0.131558
v 1.000000 1.000000 0.000000
v 1.000000 1.000000 -0.131558
vt 0.0000 0.5000
vt 0.7917 0.5000
vt 0.7917 0.0000
vt 0.0000 0.5000
vt 0.0000 1.0000
vt 0.7917 1.0000
vt 0.9479 0.5000
vt 0.9479 0.0000
vt 0.8958 0.0000
vt 0.7917 0.0000
vt 0.7917 0.5000
vt 0.8438 0.5000
vt 0.8438 0.0000
vt 0.8438 0.5000
vt 0.8958 0.5000
vt 0.9479 0.5000
vt 1.0000 0.5000
vt 0.0000 0.0000
vt 0.7917 0.5000
vt 0.8958 0.5000
vt 0.8438 0.0000
vt 0.8958 0.0000
vt 1.0000 0.0000
vn 0.0000 -0.0000 1.0000
vn 0.0000 0.0000 -1.0000
vn 0.0000 1.0000 0.0000
vn -1.0000 0.0000 0.0000
vn 0.0000 -1.0000 -0.0000
vn 1.0000 0.0000 0.0000
usemtl None
s 1
f 1/1/1 2/2/1 3/3/1
f 4/4/2 5/5/2 6/6/2
f 1/7/3 7/8/3 8/9/3
f 2/10/4 1/11/4 6/12/4
f 3/13/5 2/14/5 5/15/5
f 7/8/6 3/16/6 4/17/6
f 1/1/1 3/3/1 7/18/1
f 4/4/2 6/6/2 8/19/2
f 1/7/3 8/9/3 6/20/3
f 2/10/4 6/12/4 5/21/4
f 3/13/5 5/15/5 4/22/5
f 7/8/6 4/17/6 8/23/6
