# Blender v2.78 (sub 0) OBJ File: ''
# www.blender.org
mtllib perfect_tile2.mtl
o Plane
v -1.000000 0.000000 1.000000
v 1.000000 0.000000 1.000000
v -1.000000 0.000000 -1.000000
v 1.000000 0.000000 -1.000000
v -1.000000 -0.131558 -1.000000
v -1.000000 -0.131558 1.000000
v 1.000000 -0.131558 1.000000
v 1.000000 -0.131558 -1.000000
vt 0.0000 0.5000
vt 0.7917 0.0000
vt 0.7917 0.5000
vt 0.0000 0.5000
vt 0.7917 1.0000
vt 0.0000 1.0000
vt 0.9479 0.5000
vt 0.8958 0.0000
vt 0.9479 0.0000
vt 0.7917 0.0000
vt 0.8438 0.5000
vt 0.7917 0.5000
vt 0.8438 0.0000
vt 0.8958 0.5000
vt 0.8438 0.5000
vt 1.0000 0.5000
vt 0.9479 0.5000
vt 0.0000 0.0000
vt 0.7917 0.5000
vt 0.8958 0.5000
vt 0.8438 0.0000
vt 0.8958 0.0000
vt 1.0000 0.0000
vn 0.0000 -1.0000 0.0000
vn 0.0000 1.0000 0.0000
vn 0.0000 0.0000 1.0000
vn 1.0000 0.0000 0.0000
vn 0.0000 0.0000 -1.0000
vn -1.0000 0.0000 0.0000
usemtl None
s off
f 3/1/1 2/2/1 1/3/1
f 7/4/2 5/5/2 6/6/2
f 3/7/3 8/8/3 4/9/3
f 1/10/4 5/11/4 3/12/4
f 2/13/5 6/14/5 1/15/5
f 4/9/6 7/16/6 2/17/6
f 3/1/1 4/18/1 2/2/1
f 7/4/2 8/19/2 5/5/2
f 3/7/3 5/20/3 8/8/3
f 1/10/4 6/21/4 5/11/4
f 2/13/5 7/22/5 6/14/5
f 4/9/6 8/23/6 7/16/6
